<?xml version="1.0" standalone="no"?>
<svg xmlns:xlink="http://www.w3.org/1999/xlink" id="wave" style="transform:rotate(0deg); transition: 0.3s" viewBox="0 0 1440 180" version="1.1" xmlns="http://www.w3.org/2000/svg"><defs><linearGradient id="sw-gradient-0" x1="0" x2="0" y1="1" y2="0"><stop stop-color="rgba(255, 255, 255, 1)" offset="0%"/><stop stop-color="rgba(255, 255, 255, 1)" offset="100%"/></linearGradient></defs><path style="transform:translate(0, 0px); opacity:1" fill="url(#sw-gradient-0)" d="M0,36L60,48C120,60,240,84,360,96C480,108,600,108,720,99C840,90,960,72,1080,63C1200,54,1320,54,1440,54C1560,54,1680,54,1800,66C1920,78,2040,102,2160,111C2280,120,2400,114,2520,93C2640,72,2760,36,2880,39C3000,42,3120,84,3240,108C3360,132,3480,138,3600,123C3720,108,3840,72,3960,63C4080,54,4200,72,4320,69C4440,66,4560,42,4680,51C4800,60,4920,102,5040,105C5160,108,5280,72,5400,57C5520,42,5640,48,5760,60C5880,72,6000,90,6120,105C6240,120,6360,132,6480,123C6600,114,6720,84,6840,81C6960,78,7080,102,7200,120C7320,138,7440,150,7560,153C7680,156,7800,150,7920,135C8040,120,8160,96,8280,75C8400,54,8520,36,8580,27L8640,18L8640,180L8580,180C8520,180,8400,180,8280,180C8160,180,8040,180,7920,180C7800,180,7680,180,7560,180C7440,180,7320,180,7200,180C7080,180,6960,180,6840,180C6720,180,6600,180,6480,180C6360,180,6240,180,6120,180C6000,180,5880,180,5760,180C5640,180,5520,180,5400,180C5280,180,5160,180,5040,180C4920,180,4800,180,4680,180C4560,180,4440,180,4320,180C4200,180,4080,180,3960,180C3840,180,3720,180,3600,180C3480,180,3360,180,3240,180C3120,180,3000,180,2880,180C2760,180,2640,180,2520,180C2400,180,2280,180,2160,180C2040,180,1920,180,1800,180C1680,180,1560,180,1440,180C1320,180,1200,180,1080,180C960,180,840,180,720,180C600,180,480,180,360,180C240,180,120,180,60,180L0,180Z"/></svg>