<?xml version="1.0" standalone="no"?>
<svg xmlns:xlink="http://www.w3.org/1999/xlink" id="wave" style="transform:rotate(0deg); transition: 0.3s" viewBox="0 0 1440 490" version="1.1" xmlns="http://www.w3.org/2000/svg"><defs><linearGradient id="sw-gradient-0" x1="0" x2="0" y1="1" y2="0"><stop stop-color="rgba(255, 255, 255, 1)" offset="0%"/><stop stop-color="rgba(255, 255, 255, 1)" offset="100%"/></linearGradient></defs><path style="transform:translate(0, 0px); opacity:1" fill="url(#sw-gradient-0)" d="M0,98L21.8,106.2C43.6,114,87,131,131,179.7C174.5,229,218,310,262,334.8C305.5,359,349,327,393,285.8C436.4,245,480,196,524,147C567.3,98,611,49,655,65.3C698.2,82,742,163,785,196C829.1,229,873,212,916,212.3C960,212,1004,229,1047,220.5C1090.9,212,1135,180,1178,196C1221.8,212,1265,278,1309,285.8C1352.7,294,1396,245,1440,245C1483.6,245,1527,294,1571,318.5C1614.5,343,1658,343,1702,285.8C1745.5,229,1789,114,1833,122.5C1876.4,131,1920,261,1964,285.8C2007.3,310,2051,229,2095,220.5C2138.2,212,2182,278,2225,277.7C2269.1,278,2313,212,2356,179.7C2400,147,2444,147,2487,147C2530.9,147,2575,147,2618,187.8C2661.8,229,2705,310,2749,294C2792.7,278,2836,163,2880,114.3C2923.6,65,2967,82,3011,138.8C3054.5,196,3098,294,3120,343L3141.8,392L3141.8,490L3120,490C3098.2,490,3055,490,3011,490C2967.3,490,2924,490,2880,490C2836.4,490,2793,490,2749,490C2705.5,490,2662,490,2618,490C2574.5,490,2531,490,2487,490C2443.6,490,2400,490,2356,490C2312.7,490,2269,490,2225,490C2181.8,490,2138,490,2095,490C2050.9,490,2007,490,1964,490C1920,490,1876,490,1833,490C1789.1,490,1745,490,1702,490C1658.2,490,1615,490,1571,490C1527.3,490,1484,490,1440,490C1396.4,490,1353,490,1309,490C1265.5,490,1222,490,1178,490C1134.5,490,1091,490,1047,490C1003.6,490,960,490,916,490C872.7,490,829,490,785,490C741.8,490,698,490,655,490C610.9,490,567,490,524,490C480,490,436,490,393,490C349.1,490,305,490,262,490C218.2,490,175,490,131,490C87.3,490,44,490,22,490L0,490Z"/></svg>